<svg width="64" height="64" viewBox="0 0 64 64" fill="none" xmlns="http://www.w3.org/2000/svg">
<path d="M46.8026 16.1652C42.7688 12.3881 37.5339 10.3177 31.9804 10.3226C21.9858 10.3314 13.3574 17.1843 10.9751 26.6903C10.8017 27.3823 10.1852 27.871 9.47174 27.871H2.07781C1.11032 27.871 0.375355 26.9926 0.554322 26.0418C3.34619 11.216 16.363 0 32 0C40.5739 0 48.3601 3.37239 54.1052 8.86258L58.7135 4.25419C60.6644 2.30335 64 3.68503 64 6.444V23.7419C64 25.4523 62.6135 26.8387 60.9032 26.8387H43.6053C40.8463 26.8387 39.4646 23.5031 41.4155 21.5521L46.8026 16.1652ZM3.09677 37.1613H20.3947C23.1537 37.1613 24.5354 40.4969 22.5845 42.4479L17.1974 47.835C21.2312 51.6121 26.4665 53.6826 32.0201 53.6775C42.0095 53.6685 50.6414 46.8203 53.0249 37.3099C53.1983 36.6179 53.8148 36.1293 54.5283 36.1293H61.9223C62.8898 36.1293 63.6248 37.0076 63.4458 37.9585C60.6538 52.784 47.637 64 32 64C23.4261 64 15.6399 60.6276 9.89484 55.1374L5.28645 59.7458C3.33561 61.6966 0 60.315 0 57.556V40.2581C0 38.5477 1.38645 37.1613 3.09677 37.1613Z" fill="white"/>
</svg>
